<?xml version="1.0" standalone="no"?><!DOCTYPE svg PUBLIC "-//W3C//DTD SVG 1.1//EN" "http://www.w3.org/Graphics/SVG/1.1/DTD/svg11.dtd"><svg t="1588412687888" class="icon" viewBox="0 0 1024 1024" version="1.1" xmlns="http://www.w3.org/2000/svg" p-id="11141" xmlns:xlink="http://www.w3.org/1999/xlink" width="200" height="200"><defs><style type="text/css"></style></defs><path d="M811.733333 149.333333v725.333334H212.266667V149.333333h599.466666m0-42.666666H212.266667a42.666667 42.666667 0 0 0-42.666667 42.666666v725.333334a42.666667 42.666667 0 0 0 42.666667 42.666666h599.466666a42.666667 42.666667 0 0 0 42.666667-42.666666V149.333333a42.666667 42.666667 0 0 0-42.666667-42.666666z" p-id="11142" fill="#ffffff"></path><path d="M564.266667 298.666667h-234.666667a21.333333 21.333333 0 0 0 0 42.666666h234.666667a21.333333 21.333333 0 0 0 0-42.666666zM693.333333 490.666667h-362.666666a21.333333 21.333333 0 0 0 0 42.666666h362.666666a21.333333 21.333333 0 0 0 0-42.666666zM693.333333 682.666667h-362.666666a21.333333 21.333333 0 0 0 0 42.666666h362.666666a21.333333 21.333333 0 0 0 0-42.666666z" p-id="11143" fill="#ffffff"></path></svg>